<?xml version="1.0" encoding="UTF-8"?>
<svg width="249px" height="97px" viewBox="0 0 249 97" version="1.1" xmlns="http://www.w3.org/2000/svg" xmlns:xlink="http://www.w3.org/1999/xlink">
    <!-- Generator: Sketch 50.2 (55047) - http://www.bohemiancoding.com/sketch -->
    <title>Group 2</title>
    <desc>Created with Sketch.</desc>
    <defs></defs>
    <g id="Page-1" stroke="none" stroke-width="1" fill="none" fill-rule="evenodd">
        <g id="Artboard-1" transform="translate(-5.000000, -37.000000)">
            <g id="Group-2" transform="translate(5.000000, 37.000000)">
                <g id="Group" transform="translate(24.000000, 15.000000)" fill="#4C00FF">
                    <path d="M23.3847407,17.9937652 L23.3077037,23.7130549 C23.3077037,25.2588089 22.4602963,25.9543982 20.6114074,25.5679597 C18.9165926,25.1815212 17.1447407,24.9496581 15.604,24.9496581 C11.2128889,24.9496581 9.364,27.036426 9.364,31.6736879 L9.364,41.722575 C9.364,46.512926 11.521037,48.3693171 15.681037,48.3693171 C17.5299259,48.3693171 18.9936296,48.137454 20.7654815,47.7510155 C22.3062222,47.4403784 23.2306667,48.137454 23.2306667,49.6832079 L23.3847407,55.4797853 C19.6099259,56.2526623 17.2217778,56.4845254 14.5254815,56.4845254 C5.04992593,56.4845254 0.350666667,51.5381127 0.350666667,42.0317258 L0.350666667,31.3645371 C0.350666667,22.0127256 4.97288889,16.9117375 14.6025185,16.9117375 C17.684,16.9117375 20.0721481,17.298176 23.3847407,17.9937652" id="Fill-2"></path>
                    <rect id="Rectangle" x="100.296292" y="47.5616606" width="14.8148148" height="7.43150947" rx="1"></rect>
                    <path d="M36.8648889,17.8391899 C38.253037,17.8391899 39.098963,18.6120668 39.098963,20.0032454 L39.098963,55.557073 L30.0856296,55.557073 L30.0856296,17.8391899 L36.8648889,17.8391899 Z M39.9463704,5.55044579 L39.9463704,7.63721365 C39.9463704,10.4968585 38.0204444,12.1971879 34.5537778,12.1971879 C31.2411852,12.1971879 29.2382222,10.4968585 29.2382222,7.63721365 L29.2382222,5.55044579 C29.2382222,2.53622555 31.2411852,0.990471582 34.5537778,0.990471582 C38.0204444,0.990471582 39.9463704,2.53622555 39.9463704,5.55044579 Z" id="Fill-4"></path>
                    <path d="M48.7268148,43.4220126 L48.7268148,25.6458419 L43.9505185,25.6458419 L43.9505185,20.0038399 C43.9505185,18.6126614 44.7208889,17.8397844 46.1075556,17.8397844 L48.8808889,17.8397844 L49.9594074,9.80037743 C50.114963,8.48648655 50.8068148,7.79089727 52.1164444,7.79089727 L57.7401481,7.79089727 L57.7401481,17.8397844 L67.0631111,17.8397844 L67.0631111,23.4044987 C67.0631111,24.7956772 66.2157037,25.6458419 64.829037,25.6458419 L57.7401481,25.6458419 L57.7401481,43.8084511 C57.7401481,47.2091098 58.9742222,48.524487 61.9771852,48.524487 C63.1342222,48.524487 64.7505185,48.2911376 66.0616296,47.9819868 C67.5238519,47.672836 68.3727407,48.445713 68.3727407,49.9914669 L68.4497778,55.4030921 C66.2912593,56.0971951 63.6734815,56.4851199 60.9001481,56.4851199 C52.4245926,56.4851199 48.7268148,52.9283995 48.7268148,43.4220126" id="Fill-6"></path>
                    <path d="M88.2465185,69.856189 L82.0835556,69.856189 C80.4657778,69.856189 79.6954074,68.9287366 80.2346667,67.226921 L83.9324444,55.5564785 L80.6198519,55.5564785 L70.6035556,17.8385953 L78.3857778,17.8385953 C79.6954074,17.8385953 80.4657778,18.4568969 80.6954074,19.8480755 L86.7057778,48.8324487 L94.5635556,19.6935001 C94.8717037,18.4568969 95.6420741,17.8385953 96.9517037,17.8385953 L104.347259,17.8385953 L88.2465185,69.856189 Z" id="Fill-8"></path>
                    <path d="M128.612593,2.76794002 C129.999259,2.76794002 130.846667,3.540817 130.846667,4.93199557 L130.846667,55.5569244 L121.833333,55.5569244 L121.833333,2.76794002 L128.612593,2.76794002 Z" id="Fill-10"></path>
                    <path d="M155.421037,43.4220126 L155.421037,38.4755999 C153.957333,38.2437368 152.184,38.0891614 151.029926,38.0891614 C147.869926,38.0891614 146.25363,39.8667784 146.25363,43.1128618 L146.25363,43.7311634 C146.25363,46.8226713 147.640296,48.3684253 149.489185,48.3684253 C151.415111,48.3684253 153.649185,46.7453836 155.421037,43.4220126 M137.240296,44.581328 L137.240296,42.5718479 C137.240296,35.8478181 141.706963,31.4424193 149.026963,31.4424193 C150.721778,31.4424193 153.416593,31.8288578 155.421037,32.2152963 L155.421037,29.2783637 C155.421037,26.0322804 154.032889,24.7956772 150.335111,24.7956772 C148.33363,24.7956772 145.17363,25.4139788 142.478815,25.877705 C140.938074,26.1095681 140.089185,25.4139788 140.089185,23.8682249 L140.089185,18.3035106 C144.249185,17.4518596 148.564741,16.912332 151.259556,16.912332 C160.736593,16.912332 164.43437,20.3129907 164.43437,30.3603915 L164.43437,55.5576675 L158.271407,55.5576675 C156.884741,55.5576675 156.037333,54.7847905 156.037333,53.3921257 L156.037333,50.4551931 C153.416593,54.3983521 150.182519,56.4851199 146.792889,56.4851199 C141.090667,56.4851199 137.240296,52.2342965 137.240296,44.581328" id="Fill-12"></path>
                    <path d="M180.842074,29.8189317 L180.842074,42.9593268 C180.842074,46.746424 182.613926,48.6771302 185.541333,48.6771302 C188.930963,48.6771302 190.471704,46.746424 190.471704,42.8032651 L190.471704,31.0555349 C190.471704,26.4955607 189.162074,25.1043821 187.005037,25.1043821 C184.925037,25.1043821 182.459852,26.8819992 180.842074,29.8189317 Z M178.608,2.76823728 C179.994667,2.76823728 180.842074,3.53962796 180.842074,4.93229283 L180.842074,22.0128742 C183.076148,18.9213663 186.388741,16.9118861 190.009481,16.9118861 C196.01837,16.9118861 199.485037,20.9308464 199.485037,30.2826579 L199.485037,41.8758127 C199.485037,51.5382613 195.016889,56.484674 185.464296,56.484674 C175.988741,56.484674 171.828741,51.7701244 171.828741,42.0318744 L171.828741,2.76823728 L178.608,2.76823728 Z" id="Fill-14"></path>
                </g>
                <rect id="Rectangle-2" stroke="#00FFB9" stroke-width="6" x="3" y="3" width="243" height="91" rx="3"></rect>
            </g>
        </g>
    </g>
</svg>