<?xml version="1.0" encoding="UTF-8"?>
<svg width="164px" height="85px" viewBox="0 0 164 85" version="1.1" xmlns="http://www.w3.org/2000/svg" xmlns:xlink="http://www.w3.org/1999/xlink">
    <!-- Generator: Sketch 50.2 (55047) - http://www.bohemiancoding.com/sketch -->
    <title>Combined Shape</title>
    <desc>Created with Sketch.</desc>
    <defs></defs>
    <g id="Page-1" stroke="none" stroke-width="1" fill="none" fill-rule="evenodd">
        <g id="Artboard-1" transform="translate(0.000000, -8.000000)" fill="#EFFF1A">
            <path d="M82.8984375,93 L0,63.3457031 L0,8 L164,8 L164,65.09375 L82.8984375,93 Z M30.7847,30.1064 C28.5487,29.6384 26.9367,29.3784 24.8567,29.3784 C18.3567,29.3784 15.2367,32.8104 15.2367,39.1024 L15.2367,46.2794 C15.2367,52.6754 18.4087,56.0034 24.8047,56.0034 C26.6247,56.0034 28.2367,55.8474 30.7847,55.3274 L30.6807,51.4274 C30.6807,50.3874 30.0567,49.9184 29.0167,50.1274 C27.8207,50.3874 26.8327,50.5434 25.5847,50.5434 C22.7767,50.5434 21.3207,49.2944 21.3207,46.0714 L21.3207,39.3104 C21.3207,36.1904 22.5687,34.7864 25.5327,34.7864 C26.5727,34.7864 27.7687,34.9424 28.9127,35.2024 C30.1607,35.4624 30.7327,34.9944 30.7327,33.9544 L30.7847,30.1064 Z M39.8838,30.0024 L35.3078,30.0024 L35.3078,55.3794 L41.3918,55.3794 L41.3918,31.4584 C41.3918,30.5224 40.8208,30.0024 39.8838,30.0024 Z M41.9638,21.7344 C41.9638,19.7064 40.6638,18.6664 38.3238,18.6664 C36.0878,18.6664 34.7358,19.7064 34.7358,21.7344 L34.7358,23.1384 C34.7358,25.0624 36.0878,26.2064 38.3238,26.2064 C40.6638,26.2064 41.9638,25.0624 41.9638,23.1384 L41.9638,21.7344 Z M47.8906,47.2148 C47.8906,53.6108 50.3866,56.0038 56.1076,56.0038 C57.9796,56.0038 59.7466,55.7428 61.2036,55.2758 L61.1516,51.6348 C61.1516,50.5948 60.5786,50.0748 59.5916,50.2828 C58.7066,50.4908 57.6156,50.6478 56.8346,50.6478 C54.8076,50.6478 53.9746,49.7628 53.9746,47.4748 L53.9746,35.2548 L58.7596,35.2548 C59.6956,35.2548 60.2676,34.6828 60.2676,33.7468 L60.2676,30.0028 L53.9746,30.0028 L53.9746,23.2418 L50.1786,23.2418 C49.2946,23.2418 48.8276,23.7098 48.7226,24.5938 L47.9946,30.0028 L46.1226,30.0028 C45.1866,30.0028 44.6666,30.5228 44.6666,31.4588 L44.6666,35.2548 L47.8906,35.2548 L47.8906,47.2148 Z M74.5664,65 L85.4344,30.002 L80.4424,30.002 C79.5584,30.002 79.0384,30.418 78.8304,31.25 L73.5264,50.855 L69.4694,31.354 C69.3144,30.418 68.7944,30.002 67.9104,30.002 L62.6574,30.002 L69.4184,55.379 L71.6544,55.379 L69.1584,63.231 C68.7944,64.376 69.3144,65 70.4064,65 L74.5664,65 Z M107.6372,47.9948 C107.6372,53.1438 110.2362,56.0038 114.0852,56.0038 C116.3732,56.0038 118.5562,54.5998 120.3252,51.9468 L120.3252,53.9228 C120.3252,54.8598 120.8972,55.3798 121.8332,55.3798 L125.9932,55.3798 L125.9932,38.4268 C125.9932,31.6668 123.4972,29.3788 117.1002,29.3788 C115.2812,29.3788 112.3682,29.7418 109.5602,30.3148 L109.5602,34.0588 C109.5602,35.0988 110.1332,35.5668 111.1732,35.4108 C112.9922,35.0988 115.1252,34.6828 116.4762,34.6828 C118.9722,34.6828 119.9092,35.5148 119.9092,37.6988 L119.9092,39.6748 C118.5562,39.4148 116.7372,39.1548 115.5932,39.1548 C110.6522,39.1548 107.6372,42.1188 107.6372,46.6428 L107.6372,47.9948 Z M101.8135,19.8623 L97.2375,19.8623 L97.2375,55.3793 L103.3215,55.3793 L103.3215,21.3183 C103.3215,20.3823 102.7495,19.8623 101.8135,19.8623 Z M135.5604,19.8625 L130.9844,19.8625 L130.9844,46.2795 C130.9844,52.8315 133.7924,56.0035 140.1884,56.0035 C146.6364,56.0035 149.6524,52.6755 149.6524,46.1745 L149.6524,38.3745 C149.6524,32.0825 147.3124,29.3785 143.2564,29.3785 C140.8124,29.3785 138.5764,30.7305 137.0684,32.8105 L137.0684,21.3185 C137.0684,20.3815 136.4964,19.8625 135.5604,19.8625 Z" id="Combined-Shape"></path>
        </g>
    </g>
</svg>